<svg width="8" height="8" viewBox="0 0 8 8" fill="none" xmlns="http://www.w3.org/2000/svg">
<path d="M7.97768 2.35068C7.95847 1.92474 7.88966 1.63331 7.79204 1.3787C7.68962 1.11609 7.55359 0.891913 7.33115 0.670937C7.1087 0.44996 6.88626 0.310649 6.62381 0.209768C6.36936 0.110488 6.0781 0.0432346 5.65241 0.0240192C5.22513 0.00480384 5.0891 0 4.00408 0C2.91747 0 2.78144 0.00480384 2.35575 0.0240192C1.93007 0.0432346 1.63881 0.11209 1.38436 0.209768C1.12031 0.31225 0.896261 0.448359 0.675417 0.670937C0.454573 0.893515 0.315345 1.11609 0.214525 1.3787C0.116905 1.63331 0.0480915 1.92474 0.0288876 2.35068C0.00968377 2.77822 0.00488281 2.91433 0.00488281 4C0.00488281 5.08727 0.00968377 5.22338 0.0288876 5.64932C0.0480915 6.07526 0.116905 6.36669 0.214525 6.6213C0.316945 6.88391 0.452972 7.10809 0.675417 7.32906C0.896261 7.55164 1.12031 7.68935 1.38276 7.79023C1.63721 7.88951 1.92847 7.95677 2.35415 7.97598C2.78144 7.9952 2.91747 8 4.00248 8C5.0891 8 5.22513 7.9952 5.65081 7.97598C6.0765 7.95677 6.36776 7.88791 6.62221 7.79023C6.88466 7.68775 7.1087 7.55164 7.32955 7.32906C7.55039 7.10648 7.68962 6.88391 7.79044 6.6213C7.88966 6.36669 7.95687 6.07526 7.97608 5.64932C7.99528 5.22178 8.00008 5.08567 8.00008 4C8.00008 2.91433 7.99688 2.77662 7.97768 2.35068ZM7.25913 5.61729C7.24153 6.00801 7.17592 6.22098 7.12151 6.36029C7.04949 6.54604 6.96147 6.68054 6.82065 6.82146C6.67982 6.96237 6.54699 7.04724 6.35975 7.1225C6.21893 7.17694 6.00608 7.24259 5.61721 7.26021C5.19632 7.27942 5.0699 7.28423 4.00088 7.28423C2.93187 7.28423 2.80544 7.27942 2.38456 7.26021C1.99408 7.24259 1.78124 7.17694 1.64201 7.1225C1.45637 7.05044 1.32195 6.96237 1.18112 6.82146C1.04029 6.68054 0.955473 6.54764 0.880258 6.36029C0.825847 6.21938 0.760234 6.0064 0.74263 5.61729C0.723427 5.19616 0.718626 5.06966 0.718626 4C0.718626 2.93034 0.723427 2.80384 0.74263 2.38271C0.760234 1.99199 0.825847 1.77902 0.880258 1.63971C0.952272 1.45396 1.04029 1.31946 1.18112 1.17854C1.32195 1.03763 1.45477 0.952762 1.64201 0.877502C1.78284 0.823058 1.99568 0.757406 2.38456 0.739792C2.80544 0.720576 2.93187 0.715773 4.00088 0.715773C5.0699 0.715773 5.19632 0.720576 5.61721 0.739792C6.00768 0.757406 6.22053 0.823058 6.35975 0.877502C6.54539 0.94956 6.67982 1.03763 6.82065 1.17854C6.96147 1.31946 7.04629 1.45236 7.12151 1.63971C7.17592 1.78062 7.24153 1.99359 7.25913 2.38271C7.27834 2.80384 7.28314 2.93034 7.28314 4C7.28314 5.06966 7.27674 5.19616 7.25913 5.61729Z" fill="#626262"/>
<path d="M4.00089 1.94397C2.86466 1.94397 1.94608 2.86471 1.94608 4.00001C1.94608 5.13692 2.86626 6.05606 4.00089 6.05606C5.13551 6.05606 6.0557 5.13372 6.0557 4.00001C6.0557 2.86311 5.13711 1.94397 4.00089 1.94397ZM4.00089 5.33388C3.26474 5.33388 2.66782 4.7366 2.66782 4.00001C2.66782 3.26343 3.26474 2.66615 4.00089 2.66615C4.73703 2.66615 5.33395 3.26343 5.33395 4.00001C5.33395 4.7366 4.73703 5.33388 4.00089 5.33388Z" fill="#626262"/>
<path d="M6.13571 2.34431C6.40085 2.34431 6.6158 2.12924 6.6158 1.86393C6.6158 1.59862 6.40085 1.38354 6.13571 1.38354C5.87056 1.38354 5.65561 1.59862 5.65561 1.86393C5.65561 2.12924 5.87056 2.34431 6.13571 2.34431Z" fill="#626262"/>
<path d="M0 4C0 5.08727 0.00480096 5.22338 0.0240048 5.64932C0.0432086 6.07526 0.112022 6.36669 0.209642 6.6213C0.312062 6.88391 0.44809 7.10809 0.670534 7.32906C0.891378 7.55004 1.11542 7.68935 1.37788 7.79023C1.63233 7.88951 1.92358 7.95677 2.34927 7.97598C2.77656 7.9952 2.91258 8 3.9976 8C5.08422 8 5.22024 7.9952 5.64593 7.97598C6.07161 7.95677 6.36287 7.88791 6.61732 7.79023C6.87978 7.68775 7.10382 7.55164 7.32467 7.32906C7.54551 7.10809 7.68474 6.88391 7.78556 6.6213C7.88478 6.36669 7.95199 6.07526 7.97119 5.64932C7.9904 5.22178 7.9952 5.08567 7.9952 4C7.9952 2.91273 7.9904 2.77662 7.97119 2.35068C7.95199 1.92474 7.88318 1.63331 7.78556 1.3787C7.68314 1.11609 7.54711 0.891913 7.32467 0.670937C7.10542 0.448359 6.88138 0.310649 6.61892 0.209768C6.36447 0.110488 6.07321 0.0432346 5.64753 0.0240192C5.22024 0.00480384 5.08422 0 3.9992 0C2.91258 0 2.77656 0.00480384 2.35087 0.0240192C1.92518 0.0432346 1.63393 0.11209 1.37948 0.209768C1.11702 0.31225 0.892979 0.448359 0.672134 0.670937C0.45129 0.893515 0.312062 1.11609 0.211242 1.3787C0.112022 1.63331 0.0432086 1.92474 0.0240048 2.35068C0.00480096 2.77662 0 2.91273 0 4ZM0.721744 4C0.721744 2.93195 0.726545 2.80384 0.745749 2.38271C0.763353 1.99199 0.828966 1.77902 0.883377 1.63971C0.955391 1.45396 1.04341 1.31946 1.18424 1.17854C1.32507 1.03763 1.45789 0.952762 1.64513 0.877502C1.78596 0.823058 1.9988 0.757406 2.38768 0.739792C2.80856 0.720576 2.93499 0.715773 4.004 0.715773C5.07301 0.715773 5.19944 0.720576 5.62032 0.739792C6.0108 0.757406 6.22364 0.823058 6.36287 0.877502C6.54851 0.94956 6.68294 1.03763 6.82376 1.17854C6.96459 1.31946 7.04941 1.45236 7.12463 1.63971C7.17904 1.78062 7.24465 1.99359 7.26225 2.38271C7.28146 2.80384 7.28626 2.93034 7.28626 4C7.28626 5.06966 7.28146 5.19616 7.26225 5.61729C7.24465 6.00801 7.17904 6.22098 7.12463 6.36029C7.05261 6.54604 6.96459 6.68054 6.82376 6.82146C6.68294 6.96237 6.55011 7.04724 6.36287 7.1225C6.22204 7.17694 6.0092 7.24259 5.62032 7.26021C5.19944 7.27942 5.07301 7.28423 4.004 7.28423C2.93499 7.28423 2.80856 7.27942 2.38768 7.26021C1.9972 7.24259 1.78436 7.17694 1.64513 7.1225C1.45949 7.05044 1.32507 6.96237 1.18424 6.82146C1.04341 6.68054 0.958592 6.54764 0.883377 6.36029C0.828966 6.21938 0.763353 6.0064 0.745749 5.61729C0.724945 5.19616 0.721744 5.06805 0.721744 4Z" fill="#626262"/>
</svg>
